<?xml version="1.0" standalone="no"?>
<!DOCTYPE svg PUBLIC "-//W3C//DTD SVG 20010904//EN"
 "http://www.w3.org/TR/2001/REC-SVG-20010904/DTD/svg10.dtd">
<svg version="1.0" xmlns="http://www.w3.org/2000/svg"
 width="654.000000pt" height="229.000000pt" viewBox="0 0 654.000000 229.000000"
 preserveAspectRatio="xMidYMid meet">

<g transform="translate(0.000000,229.000000) scale(0.100000,-0.100000)"
fill="#000000" stroke="none">
<path d="M2470 1335 c0 -107 -2 -195 -4 -195 -2 0 -18 13 -36 30 -63 58 -161
62 -245 9 -129 -82 -128 -317 2 -399 82 -52 181 -48 243 10 18 17 34 30 36 30
2 0 4 -16 4 -35 l0 -35 50 0 50 0 0 390 0 390 -50 0 -50 0 0 -195z m-65 -229
c42 -28 60 -65 60 -126 0 -47 -5 -64 -28 -93 -46 -60 -132 -72 -190 -27 -34
27 -61 100 -53 142 9 49 42 97 79 114 38 17 98 12 132 -10z"/>
<path d="M5670 1335 c0 -107 -2 -195 -4 -195 -2 0 -18 13 -36 30 -63 58 -161
62 -245 9 -129 -82 -128 -317 2 -399 82 -52 181 -48 243 10 18 17 34 30 36 30
2 0 4 -16 4 -35 l0 -35 50 0 50 0 0 390 0 390 -50 0 -50 0 0 -195z m-65 -229
c42 -28 60 -65 60 -126 0 -47 -5 -64 -28 -93 -46 -60 -132 -72 -190 -27 -34
27 -61 100 -53 142 9 49 42 97 79 114 38 17 98 12 132 -10z"/>
<path d="M4299 1447 c-103 -29 -181 -96 -228 -197 -22 -47 -26 -69 -26 -150 0
-88 3 -101 33 -162 38 -77 92 -130 171 -167 49 -23 68 -26 156 -26 92 1 105 3
155 30 l55 30 3 68 3 68 -45 -35 c-151 -115 -367 -41 -407 140 -52 234 223
397 412 244 l39 -31 0 65 c0 70 -9 82 -85 115 -43 19 -181 24 -236 8z"/>
<path d="M200 1100 l0 -350 55 0 55 0 0 160 0 160 130 0 130 0 0 50 0 50 -130
0 -130 0 0 90 0 90 135 0 135 0 0 50 0 50 -190 0 -190 0 0 -350z"/>
<path d="M852 1204 c-19 -10 -36 -23 -39 -31 -9 -22 -23 -15 -23 12 0 23 -3
25 -50 25 l-50 0 0 -230 0 -230 49 0 49 0 4 159 c3 153 4 161 27 185 26 28 78
35 99 14 13 -13 11 -15 41 36 19 33 20 41 8 53 -22 22 -78 25 -115 7z"/>
<path d="M1169 1206 c-66 -17 -108 -52 -135 -110 -50 -107 -20 -255 63 -310
104 -69 272 -49 343 41 11 14 20 29 20 33 0 4 -19 14 -42 23 -40 16 -42 16
-55 -3 -37 -52 -147 -68 -198 -28 -25 20 -55 73 -55 98 0 6 63 10 180 10 l180
0 0 38 c0 105 -64 191 -158 211 -65 13 -84 13 -143 -3z m131 -81 c28 -14 60
-60 60 -85 0 -6 -43 -10 -120 -10 -77 0 -120 4 -120 10 0 24 32 70 58 84 35
20 86 20 122 1z"/>
<path d="M1709 1206 c-66 -17 -108 -52 -135 -110 -50 -107 -20 -255 63 -310
104 -69 272 -49 343 41 11 14 20 29 20 33 0 4 -19 14 -42 23 -40 16 -42 16
-55 -3 -37 -52 -147 -68 -198 -28 -25 20 -55 73 -55 98 0 6 63 10 180 10 l180
0 0 38 c0 105 -64 191 -158 211 -65 13 -84 13 -143 -3z m131 -81 c28 -14 60
-60 60 -85 0 -6 -43 -10 -120 -10 -77 0 -120 4 -120 10 0 24 32 70 58 84 35
20 86 20 122 1z"/>
<path d="M2847 1206 c-60 -17 -115 -60 -144 -116 -32 -61 -32 -160 0 -221 90
-169 355 -166 440 6 55 113 8 258 -102 314 -50 26 -135 33 -194 17z m149 -101
c84 -55 85 -195 1 -250 -62 -40 -145 -23 -190 39 -31 44 -30 129 2 175 43 60
126 76 187 36z"/>
<path d="M3453 1209 c-17 -5 -41 -20 -51 -34 -26 -33 -32 -31 -32 5 0 29 -1
30 -50 30 l-50 0 0 -230 0 -230 49 0 50 0 3 164 c3 157 4 166 26 189 29 31 62
40 97 27 44 -17 55 -62 55 -230 l0 -150 50 0 50 0 0 154 c0 85 4 166 10 181
13 34 72 59 108 47 45 -15 52 -43 52 -219 l0 -163 50 0 50 0 0 181 c0 194 -8
235 -54 264 -57 36 -143 25 -198 -24 l-32 -28 -23 28 c-23 26 -78 50 -113 48
-8 0 -29 -5 -47 -10z"/>
<path d="M4897 1206 c-60 -17 -115 -60 -144 -116 -32 -61 -32 -160 0 -221 90
-169 355 -166 440 6 55 113 8 258 -102 314 -50 26 -135 33 -194 17z m149 -101
c84 -55 85 -195 1 -250 -62 -40 -145 -23 -190 39 -31 44 -30 129 2 175 43 60
126 76 187 36z"/>
<path d="M6039 1206 c-66 -17 -108 -52 -135 -110 -50 -107 -20 -255 63 -310
104 -69 272 -49 343 41 11 14 20 29 20 33 0 4 -19 14 -42 23 -40 16 -42 16
-55 -3 -37 -52 -147 -68 -198 -28 -25 20 -55 73 -55 98 0 6 63 10 180 10 l180
0 0 38 c0 105 -64 191 -158 211 -65 13 -84 13 -143 -3z m131 -81 c28 -14 60
-60 60 -85 0 -6 -43 -10 -120 -10 -77 0 -120 4 -120 10 0 24 32 70 58 84 35
20 86 20 122 1z"/>
</g>
</svg>
